# xmcd
#
# Track frame offsets:
#	150
#	24630
#	40380
#	56745
#	75537
#	89937
#	105595
#	119357
#	137892
#	153375
#	169677
#	186762
#	202195
#
# Disc length: 2968 seconds
#
# Revision: 3
# Processed by: cddbd v1.5.2PL0 Copyright (c) Steve Scherf et al.
# Submitted via: EZCDAudioConverter 3.1.5.1
#
DISCID=b90b960d
DTITLE=Χρήστος Νικολόπουλος - Ωδείο Ηρώδου Αττικού CD1
DYEAR=2000
DGENRE=laika
TTITLE0=Χρήστος Νικολόπουλος - Ορχηστρικό
TTITLE1=Κώστας Μακεδόνας - Ευρωπαικές Παλιοκοινωνίες
TTITLE2=Κώστας Μακεδόνας - Έκανες το Λάθος
TTITLE3=Κώστας Μακεδόνας - Τις Μακρινές τις Θάλασσες
TTITLE4=Κώστας Μακεδόνας - Το Ποδήλατο
TTITLE5=Ελευθερία Αρβανιτάκη - Βήμα Βήμα
TTITLE6=Ελευθερία Αρβανιτάκη - Ζήλεια μου
TTITLE7=Ελευθερία Αρβανιτάκη - Γκρίζα
TTITLE8=Δημήτρης Μπάσης - Τώρα μένω μόνος μου
TTITLE9=Δημήτρης Μπάσης - Ψίθυροι Καρδιάς
TTITLE10=Δημήτρης Μπάσης - Ξένος για σένανε και Εχθρός
TTITLE11=Κώστας Μακεδόνας - Έτσι σ' Αγάπησα
TTITLE12=Κώστας Μακεδόνας - Κάτσε Καλά
EXTD=
EXTT0=
EXTT1=
EXTT2=
EXTT3=
EXTT4=
EXTT5=
EXTT6=
EXTT7=
EXTT8=
EXTT9=
EXTT10=
EXTT11=
EXTT12=
PLAYORDER=
